<svg width="174" height="46" viewBox="0 0 174 46" fill="none" xmlns="http://www.w3.org/2000/svg">
<g clip-path="url(#clip0_2901_1404)">
<path d="M0.858 45H9.174L13.398 33.318H29.832L33.99 45H42.9L26.928 1.176H17.358L0.858 45ZM15.84 26.388L21.78 10.152L27.522 26.388H15.84ZM47.4581 45H55.8401V1.176H47.4581V45ZM81.3362 45.858C87.1442 45.858 91.5662 43.35 94.0742 38.994V45H101.532V23.154H83.2502V30.084H92.9522C92.3582 35.43 87.8702 38.598 82.4582 38.598C74.7362 38.598 69.9842 33.252 69.9842 24.144V23.484C69.9842 13.584 75.0002 7.842 82.3922 7.842C88.0682 7.842 91.6322 10.284 92.6882 15.828H101.4C99.8162 5.664 92.8202 0.317997 82.4582 0.317997C69.9842 0.317997 61.4042 9.36 61.4042 23.748C61.4042 37.212 69.3242 45.858 81.3362 45.858Z" fill="#2D3C49"/>
<path d="M116.224 14H117.666L118.674 11.298H122.314L123.28 14H124.764L121.362 4.704H119.724L116.224 14ZM119.094 10.066L120.508 6.23L121.88 10.066H119.094ZM125.615 14H126.987V10.612C126.987 9.268 127.309 8.68 128.485 8.68H129.115V7.336H128.905C127.701 7.336 127.183 7.84 126.987 8.61V7.392H125.615V14ZM132.293 14H133.469V12.796H132.685C132.265 12.796 132.097 12.6 132.097 12.18V8.568H133.525V7.392H132.097V5.278L130.767 6.104V7.392H129.717V8.568H130.767V12.348C130.781 13.398 131.089 13.944 132.293 14ZM116.826 28H118.226V18.704H116.826V28ZM119.791 28H121.163V24.836C121.163 23.324 121.751 22.47 122.773 22.47C123.669 22.47 124.103 23.016 124.103 24.052V28H125.489V23.982C125.489 22.218 124.621 21.252 123.193 21.252C122.185 21.252 121.513 21.756 121.163 22.638V21.392H119.791V28ZM126.832 28H128.204V24.836C128.204 23.324 128.792 22.47 129.814 22.47C130.71 22.47 131.144 23.016 131.144 24.052V28H132.53V23.982C132.53 22.218 131.662 21.252 130.234 21.252C129.226 21.252 128.554 21.756 128.204 22.638V21.392H126.832V28ZM136.785 28.112C138.731 28.112 140.117 26.698 140.117 24.71C140.117 22.694 138.759 21.28 136.813 21.28C134.867 21.28 133.495 22.694 133.495 24.71C133.495 26.726 134.839 28.112 136.785 28.112ZM136.785 26.95C135.609 26.95 134.881 26.11 134.881 24.752V24.696C134.881 23.31 135.637 22.442 136.813 22.442C137.989 22.442 138.731 23.31 138.731 24.696V24.752C138.731 26.096 137.975 26.95 136.785 26.95ZM142.709 28.014H143.983L146.447 21.392H145.005L143.339 26.362L141.589 21.392H140.161L142.709 28.014ZM148.765 28.168C149.717 28.168 150.543 27.79 150.991 27.006V28H152.321L152.307 26.978V23.716C152.307 22.036 151.299 21.28 149.605 21.28C147.855 21.28 146.679 22.176 146.637 23.66H148.023V23.576C148.079 22.834 148.611 22.386 149.591 22.386C150.599 22.386 151.005 22.806 151.005 23.352V23.45C150.865 23.814 150.179 23.884 149.059 24.122C147.589 24.444 146.483 24.78 146.483 26.264C146.483 27.398 147.351 28.168 148.765 28.168ZM149.017 27.118C148.289 27.118 147.883 26.754 147.883 26.208C147.883 25.508 148.499 25.27 149.255 25.074C149.899 24.92 150.599 24.808 151.005 24.528V25.34C150.893 26.628 149.983 27.118 149.017 27.118ZM155.631 28H156.807V26.796H156.023C155.603 26.796 155.435 26.6 155.435 26.18V22.568H156.863V21.392H155.435V19.278L154.105 20.104V21.392H153.055V22.568H154.105V26.348C154.119 27.398 154.427 27.944 155.631 28ZM157.907 20.328H159.391V18.872H157.907V20.328ZM157.949 28H159.335V21.392H157.949V28ZM162.642 28.014H163.916L166.38 21.392H164.938L163.272 26.362L161.522 21.392H160.094L162.642 28.014ZM169.693 28.112C171.387 28.112 172.325 27.3 172.773 26.278L171.555 25.802C171.303 26.446 170.813 26.992 169.693 26.992C168.573 26.992 167.859 26.306 167.775 25.172H172.745V24.668C172.745 22.582 171.583 21.28 169.637 21.28C167.761 21.28 166.403 22.694 166.403 24.738C166.403 26.768 167.663 28.112 169.693 28.112ZM167.747 24.136C167.887 23.058 168.615 22.4 169.609 22.4C170.645 22.4 171.275 23.002 171.331 24.136H167.747ZM120.662 42.168C121.964 42.168 122.958 41.594 123.49 40.586V42H124.736V37.492H120.984V38.71H123.28C123.21 40.026 122.16 40.908 120.788 40.908C118.996 40.908 117.876 39.634 117.876 37.52V37.394C117.876 35.154 119.052 33.824 120.788 33.824C122.132 33.824 122.986 34.398 123.238 35.77L124.722 35.756C124.372 33.614 122.944 32.536 120.802 32.536C118.212 32.536 116.434 34.44 116.434 37.464C116.434 40.348 118.1 42.168 120.662 42.168ZM128.121 42.168C129.073 42.168 129.899 41.79 130.347 41.006V42H131.677L131.663 40.978V37.716C131.663 36.036 130.655 35.28 128.961 35.28C127.211 35.28 126.035 36.176 125.993 37.66H127.379V37.576C127.435 36.834 127.967 36.386 128.947 36.386C129.955 36.386 130.361 36.806 130.361 37.352V37.45C130.221 37.814 129.535 37.884 128.415 38.122C126.945 38.444 125.839 38.78 125.839 40.264C125.839 41.398 126.707 42.168 128.121 42.168ZM128.373 41.118C127.645 41.118 127.239 40.754 127.239 40.208C127.239 39.508 127.855 39.27 128.611 39.074C129.255 38.92 129.955 38.808 130.361 38.528V39.34C130.249 40.628 129.339 41.118 128.373 41.118ZM133.039 42H134.425V32.564H133.039V42ZM135.882 42H137.268V32.564H135.882V42ZM141.638 42.112C143.332 42.112 144.27 41.3 144.718 40.278L143.5 39.802C143.248 40.446 142.758 40.992 141.638 40.992C140.518 40.992 139.804 40.306 139.72 39.172H144.69V38.668C144.69 36.582 143.528 35.28 141.582 35.28C139.706 35.28 138.348 36.694 138.348 38.738C138.348 40.768 139.608 42.112 141.638 42.112ZM139.692 38.136C139.832 37.058 140.56 36.4 141.554 36.4C142.59 36.4 143.22 37.002 143.276 38.136H139.692ZM145.794 42H147.166V38.612C147.166 37.268 147.488 36.68 148.664 36.68H149.294V35.336H149.084C147.88 35.336 147.362 35.84 147.166 36.61V35.392H145.794V42ZM150.024 44.66H150.724C152.306 44.66 152.88 44.044 153.482 42.476L156.016 35.392H154.56L152.95 40.32L151.186 35.392H149.744L152.292 41.874C151.774 43.218 151.564 43.414 150.654 43.414H150.024V44.66Z" fill="#2D3C49"/>
</g>
<defs>
<clipPath id="clip0_2901_1404">
<rect width="174" height="46" fill="white"/>
</clipPath>
</defs>
</svg>
